<svg width="18" height="240" viewBox="0 0 18 240" fill="none" xmlns="http://www.w3.org/2000/svg">
<path d="M14 231.481L14 234.162L7.4873 237.458L14 237.458L14 239.831L1.15039 239.831L1.15039 237.458L7.37305 237.458L1.15039 234.109L1.15039 231.552L7.33789 235.076L14 231.481ZM7.55762 219.855C9.68457 219.855 11.3193 220.254 12.4619 221.051C13.6045 221.847 14.1758 222.987 14.1758 224.47C14.1758 225.958 13.6074 227.1 12.4707 227.897C11.3281 228.694 9.68457 229.093 7.54004 229.093C5.41309 229.093 3.78418 228.694 2.65332 227.897C1.5166 227.1 0.948242 225.952 0.948241 224.452C0.948241 222.97 1.51953 221.833 2.66211 221.042C3.79883 220.251 5.43066 219.855 7.55762 219.855ZM7.55762 226.649C9.02246 226.649 10.1387 226.465 10.9062 226.096C11.6738 225.726 12.0576 225.184 12.0576 224.47C12.0576 223.028 10.5576 222.307 7.55762 222.307C4.55762 222.307 3.05762 223.022 3.05762 224.452C3.05762 225.179 3.44141 225.726 4.20898 226.096C4.9707 226.465 6.08691 226.649 7.55762 226.649ZM14 208.238L14 210.629L8.36621 210.629L8.36621 213.784L14 213.784L14 216.174L1.15039 216.174L1.15039 213.784L6.25683 213.784L6.25683 210.629L1.15039 210.629L1.15039 208.238L14 208.238ZM14 200.215L14 202.597L3.25097 202.597L3.25097 205.058L1.15039 205.058L1.15039 197.754L3.25097 197.754L3.25097 200.215L14 200.215ZM14 189.371L10.7568 190.11L10.7568 193.458L14 194.196L14 196.587L1.09765 193.405L1.09765 190.162L14 186.972L14 189.371ZM8.63867 190.558L5.65039 191.243C5.46875 191.284 5.01465 191.378 4.28808 191.525C3.55566 191.665 3.0664 191.75 2.82031 191.779C3.32422 191.856 3.88086 191.952 4.49023 192.07C5.09375 192.187 6.47656 192.491 8.63867 192.984L8.63867 190.558ZM14 175.653L14 178.334L7.4873 181.63L14 181.63L14 184.003L1.15039 184.003L1.15039 181.63L7.37304 181.63L1.15039 178.281L1.15039 175.724L7.33789 179.248L14 175.653ZM14 168.764L14 171.146L3.25097 171.146L3.25097 173.607L1.15039 173.607L1.15039 166.304L3.25097 166.304L3.25097 168.764L14 168.764ZM14 155.187L14 157.578L8.36621 157.578L8.36621 160.733L14 160.733L14 163.124L1.15039 163.124L1.15039 160.733L6.25683 160.733L6.25683 157.578L1.15039 157.578L1.15039 155.187L14 155.187ZM14 145.029L10.7568 145.767L10.7568 149.116L14 149.854L14 152.245L1.09765 149.063L1.09765 145.82L14 142.629L14 145.029ZM8.63867 146.215L5.65039 146.901C5.46875 146.942 5.01464 147.036 4.28808 147.182C3.55566 147.323 3.0664 147.408 2.82031 147.437C3.32421 147.513 3.88086 147.61 4.49023 147.727C5.09375 147.844 6.47656 148.149 8.63867 148.641L8.63867 146.215ZM8.99902 136.224L14 138.219L14 140.794L8.38378 138.342C8.03222 138.91 7.58984 139.323 7.05664 139.581C6.51757 139.839 5.86132 139.968 5.08789 139.968C2.46289 139.968 1.15039 138.664 1.15039 136.057L1.15039 132.963L14 132.963L14 135.354L8.99902 135.354L8.99902 136.224ZM3.21582 135.354L3.21582 135.934C3.21582 136.479 3.35644 136.883 3.63769 137.147C3.91308 137.404 4.3789 137.533 5.03515 137.533C5.66796 137.533 6.1455 137.416 6.46777 137.182C6.78418 136.942 6.94238 136.537 6.94238 135.969L6.94238 135.354L3.21582 135.354ZM1.15039 122.648L1.15039 120.433L8.208 120.433C8.94042 120.433 9.66406 120.489 10.3789 120.6L10.3789 120.504L1.15039 116.584L1.15039 113.648L14 113.648L14 115.846L6.95996 115.846C6.09277 115.846 5.33105 115.778 4.6748 115.643L4.6748 115.758L14 119.695L14 122.648L1.15039 122.648ZM14 101.644L14 104.035L8.3662 104.035L8.36621 107.19L14 107.19L14 109.581L1.15038 109.581L1.15038 107.19L6.25683 107.19L6.25683 104.035L1.15038 104.035L1.15038 101.644L14 101.644ZM0.965814 93.5336L0.965814 91.2836L2.54785 91.2836L2.54785 90.9584C2.54784 89.6342 2.96972 88.6088 3.81347 87.8822C4.65722 87.1498 5.82031 86.7836 7.30273 86.7836C8.29296 86.7836 9.15722 86.9565 9.8955 87.3022C10.6279 87.6479 11.1963 88.1518 11.6006 88.8139C11.999 89.4701 12.1982 90.2641 12.1982 91.1957L12.1982 91.2836L14.1758 91.2836L14.1758 93.5336L12.1982 93.5336L12.1982 93.6479C12.1982 95.0482 11.7734 96.1322 10.9238 96.8998C10.0742 97.6674 8.89062 98.0512 7.37304 98.0512C6.42382 98.0512 5.583 97.8813 4.85058 97.5414C4.11816 97.2016 3.55273 96.7123 3.15429 96.0736C2.74999 95.435 2.54785 94.685 2.54785 93.8236L2.54785 93.5336L0.965814 93.5336ZM10.3965 91.2836L10.3965 91.2133C10.3965 90.5805 10.1269 90.0941 9.58788 89.7543C9.04882 89.4086 8.29296 89.2357 7.32031 89.2357C6.36523 89.2357 5.63574 89.394 5.13183 89.7104C4.62206 90.0209 4.36718 90.4691 4.36718 91.0551L4.36718 91.2836L10.3965 91.2836ZM4.36718 93.5336L4.36718 93.7885C4.36718 94.3744 4.62792 94.8256 5.14941 95.142C5.66503 95.4525 6.38867 95.6078 7.32031 95.6078C8.2871 95.6078 9.04296 95.435 9.58788 95.0893C10.1269 94.7377 10.3965 94.2484 10.3965 93.6215L10.3965 93.5336L4.36718 93.5336ZM7.55761 74.3576C9.68456 74.3576 11.3193 74.7561 12.4619 75.5529C13.6045 76.3498 14.1758 77.4895 14.1758 78.9719C14.1758 80.4602 13.6074 81.6027 12.4707 82.3996C11.3281 83.1965 9.68456 83.5949 7.54003 83.5949C5.41308 83.5949 3.78417 83.1965 2.65331 82.3996C1.51659 81.6027 0.948235 80.4543 0.948235 78.9543C0.948235 77.4719 1.51952 76.3352 2.6621 75.5441C3.79882 74.7531 5.43066 74.3576 7.55761 74.3576ZM7.55761 81.1516C9.02245 81.1516 10.1387 80.967 10.9062 80.5979C11.6738 80.2287 12.0576 79.6867 12.0576 78.9719C12.0576 77.5305 10.5576 76.8098 7.55761 76.8098C4.55761 76.8098 3.05761 77.5246 3.05761 78.9543C3.05761 79.6809 3.4414 80.2287 4.20898 80.5979C4.9707 80.967 6.08691 81.1516 7.55761 81.1516ZM5.10546 63.6719C6.4707 63.6719 7.51952 64.0176 8.25195 64.709C8.97851 65.3945 9.34179 66.3877 9.34179 67.6885L9.34179 68.2861L14 68.2861L14 70.6768L1.15038 70.6768L1.15038 67.416C1.15038 64.9199 2.46874 63.6719 5.10546 63.6719ZM7.26757 68.2861L7.26757 67.8291C7.26757 67.2432 7.10644 66.8066 6.78417 66.5195C6.46191 66.2324 5.93456 66.0889 5.20214 66.0889C4.52831 66.0889 4.03027 66.2207 3.708 66.4844C3.37988 66.748 3.21581 67.1553 3.21581 67.7061L3.21581 68.2861L7.26757 68.2861ZM14 55.658L3.05761 58.1014L3.05761 58.198C3.90136 58.0867 4.6748 58.0311 5.37792 58.0311L14 58.0311L14 60.2459L1.15038 60.2459L1.15038 56.5721L11.249 54.3748L11.249 54.3045L1.15038 52.1248L1.15038 48.3982L14 48.3982L14 50.6658L5.29003 50.6658C4.56933 50.6658 3.83105 50.6248 3.07519 50.5428L3.07519 50.6131L14 53.0477L14 55.658ZM14 38.2486L10.7568 38.9869L10.7568 42.3355L14 43.0738L14 45.4644L1.09765 42.2828L1.09765 39.0396L14 35.8492L14 38.2486ZM8.63866 39.4351L5.65038 40.1207C5.46874 40.1617 5.01464 40.2555 4.28808 40.4019C3.55566 40.5426 3.0664 40.6275 2.8203 40.6568C3.32421 40.733 3.88085 40.8297 4.49023 40.9469C5.09374 41.0641 6.47655 41.3687 8.63866 41.8609L8.63866 39.4351ZM11.9873 24.9789L11.9873 23.5199L17.6738 23.5199L17.6738 25.8402L14 25.8402L14 32.9154L1.15038 32.9154L1.15038 30.5248L11.8906 30.5248L11.8906 27.3695L1.15038 27.3695L1.15038 24.9789L11.9873 24.9789ZM1.15038 20.3049L1.15038 18.09L8.208 18.09C8.94042 18.09 9.66405 18.1457 10.3789 18.257L10.3789 18.1604L1.15038 14.2404L1.15038 11.3049L14 11.3049L14 13.5022L6.95995 13.5022C6.09276 13.5022 5.33104 13.4348 4.67479 13.3L4.67479 13.4143L14 17.3518L14 20.3049L1.15038 20.3049ZM8.99901 3.76562L14 5.76074L14 8.33594L8.38378 5.88379C8.03222 6.45215 7.58983 6.86523 7.05663 7.12305C6.51757 7.38086 5.86132 7.50977 5.08788 7.50977C2.46288 7.50977 1.15038 6.20605 1.15038 3.59863L1.15038 0.504883L14 0.504882L14 2.89551L8.99901 2.89551L8.99901 3.76562ZM3.21581 2.89551L3.21581 3.47559C3.21581 4.02051 3.35643 4.4248 3.63768 4.68848C3.91308 4.94629 4.3789 5.07519 5.03515 5.07519C5.66796 5.07519 6.1455 4.95801 6.46776 4.72363C6.78417 4.4834 6.94237 4.0791 6.94237 3.51074L6.94237 2.89551L3.21581 2.89551Z" fill="#C4C4C4"/>
</svg>
