<svg width="45" height="45" viewBox="0 0 45 45" fill="none" xmlns="http://www.w3.org/2000/svg">
<path d="M30.9375 0H14.0625C6.29719 0 0 6.29719 0 14.0625V30.9375C0 38.7028 6.29719 45 14.0625 45H30.9375C38.7028 45 45 38.7028 45 30.9375V14.0625C45 6.29719 38.7028 0 30.9375 0ZM40.7812 30.9375C40.7812 36.3656 36.3656 40.7812 30.9375 40.7812H14.0625C8.63438 40.7812 4.21875 36.3656 4.21875 30.9375V14.0625C4.21875 8.63438 8.63438 4.21875 14.0625 4.21875H30.9375C36.3656 4.21875 40.7812 8.63438 40.7812 14.0625V30.9375Z" fill="white"/>
</svg>
